<?xml version="1.0" encoding="us-ascii" standalone="no"?><svg xmlns="http://www.w3.org/2000/svg" xmlns:xlink="http://www.w3.org/1999/xlink" contentStyleType="text/css" height="692px" preserveAspectRatio="none" style="width:722px;height:692px;background:#FFFFFF;" version="1.1" viewBox="0 0 722 692" width="722px" zoomAndPan="magnify"><defs/><g><text fill="#000000" font-family="sans-serif" font-size="14" font-weight="bold" lengthAdjust="spacing" textLength="245" x="234.5" y="27.9951">BSP Sequence - Full Flash Flow</text><rect fill="#FF9F1C" height="29.1328" style="stroke:#1E1E1E;stroke-width:1.0;" width="10" x="517.5" y="147.8594"/><rect fill="#FF9F1C" height="29.1328" style="stroke:#1E1E1E;stroke-width:1.0;" width="10" x="517.5" y="303.6563"/><rect fill="#FF9F1C" height="29.1328" style="stroke:#1E1E1E;stroke-width:1.0;" width="10" x="517.5" y="466.4531"/><rect fill="#FF9F1C" height="29.1328" style="stroke:#1E1E1E;stroke-width:1.0;" width="10" x="517.5" y="574.8516"/><rect fill="none" height="105.6641" style="stroke:#000000;stroke-width:1.5;" width="695" x="10" y="235.125"/><rect fill="none" height="105.6641" style="stroke:#000000;stroke-width:1.5;" width="695" x="10" y="397.9219"/><line style="stroke:#1E1E1E;stroke-width:0.5;stroke-dasharray:5.0,5.0;" x1="180" x2="180" y1="73.5938" y2="657.1172"/><line style="stroke:#1E1E1E;stroke-width:0.5;stroke-dasharray:5.0,5.0;" x1="522" x2="522" y1="73.5938" y2="657.1172"/><rect fill="#053671" height="30.2969" rx="2.5" ry="2.5" style="stroke:#1E1E1E;stroke-width:0.5;" width="80" x="140" y="42.2969"/><text fill="#FFFFFF" font-family="sans-serif" font-size="14" lengthAdjust="spacing" textLength="66" x="147" y="62.292">Host (CLI)</text><rect fill="#053671" height="30.2969" rx="2.5" ry="2.5" style="stroke:#1E1E1E;stroke-width:0.5;" width="80" x="140" y="656.1172"/><text fill="#FFFFFF" font-family="sans-serif" font-size="14" lengthAdjust="spacing" textLength="66" x="147" y="676.1123">Host (CLI)</text><rect fill="#053671" height="30.2969" rx="2.5" ry="2.5" style="stroke:#1E1E1E;stroke-width:0.5;" width="105" x="470" y="42.2969"/><text fill="#FFFFFF" font-family="sans-serif" font-size="14" lengthAdjust="spacing" textLength="91" x="477" y="62.292">Target (MCU)</text><rect fill="#053671" height="30.2969" rx="2.5" ry="2.5" style="stroke:#1E1E1E;stroke-width:0.5;" width="105" x="470" y="656.1172"/><text fill="#FFFFFF" font-family="sans-serif" font-size="14" lengthAdjust="spacing" textLength="91" x="477" y="676.1123">Target (MCU)</text><rect fill="#FF9F1C" height="29.1328" style="stroke:#1E1E1E;stroke-width:1.0;" width="10" x="517.5" y="147.8594"/><rect fill="#FF9F1C" height="29.1328" style="stroke:#1E1E1E;stroke-width:1.0;" width="10" x="517.5" y="303.6563"/><rect fill="#FF9F1C" height="29.1328" style="stroke:#1E1E1E;stroke-width:1.0;" width="10" x="517.5" y="466.4531"/><rect fill="#FF9F1C" height="29.1328" style="stroke:#1E1E1E;stroke-width:1.0;" width="10" x="517.5" y="574.8516"/><rect fill="#EEEEEE" height="3" style="stroke:#EEEEEE;stroke-width:1.0;" width="715" x="0" y="104.1602"/><line style="stroke:#000000;stroke-width:1.0;" x1="0" x2="715" y1="104.1602" y2="104.1602"/><line style="stroke:#000000;stroke-width:1.0;" x1="0" x2="715" y1="107.1602" y2="107.1602"/><rect fill="#EEEEEE" height="23.1328" style="stroke:#000000;stroke-width:2.0;" width="134" x="290.5" y="93.5938"/><text fill="#000000" font-family="sans-serif" font-size="13" font-weight="bold" lengthAdjust="spacing" textLength="115" x="296.5" y="109.6606">1 &#183; Erase Phase</text><polygon fill="#1E1E1E" points="505.5,143.8594,515.5,147.8594,505.5,151.8594,509.5,147.8594" style="stroke:#1E1E1E;stroke-width:1.0;"/><line style="stroke:#1E1E1E;stroke-width:1.0;" x1="180" x2="511.5" y1="147.8594" y2="147.8594"/><text fill="#000000" font-family="sans-serif" font-size="13" font-weight="bold" lengthAdjust="spacing" textLength="21" x="187" y="142.7935">[1]</text><text fill="#000000" font-family="sans-serif" font-size="13" lengthAdjust="spacing" textLength="26" x="212" y="142.7935">CRA</text><text fill="#000000" font-family="sans-serif" font-size="13" font-weight="bold" lengthAdjust="spacing" textLength="101" x="242" y="142.7935">ERASE_FLASH</text><text fill="#000000" font-family="sans-serif" font-size="13" lengthAdjust="spacing" textLength="45" x="347" y="142.7935">(0&#215;10)</text><polygon fill="#1E1E1E" points="191,172.9922,181,176.9922,191,180.9922,187,176.9922" style="stroke:#1E1E1E;stroke-width:1.0;"/><line style="stroke:#1E1E1E;stroke-width:1.0;stroke-dasharray:2.0,2.0;" x1="185" x2="521.5" y1="176.9922" y2="176.9922"/><text fill="#000000" font-family="sans-serif" font-size="13" font-weight="bold" lengthAdjust="spacing" textLength="21" x="197" y="171.9263">[2]</text><text fill="#000000" font-family="sans-serif" font-size="13" lengthAdjust="spacing" textLength="94" x="222" y="171.9263">Response (OK)</text><rect fill="#EEEEEE" height="3" style="stroke:#EEEEEE;stroke-width:1.0;" width="715" x="0" y="205.5586"/><line style="stroke:#000000;stroke-width:1.0;" x1="0" x2="715" y1="205.5586" y2="205.5586"/><line style="stroke:#000000;stroke-width:1.0;" x1="0" x2="715" y1="208.5586" y2="208.5586"/><rect fill="#EEEEEE" height="23.1328" style="stroke:#000000;stroke-width:2.0;" width="132" x="291.5" y="194.9922"/><text fill="#000000" font-family="sans-serif" font-size="13" font-weight="bold" lengthAdjust="spacing" textLength="113" x="297.5" y="211.0591">2 &#183; Write Phase</text><path d="M10,235.125 L87,235.125 L87,242.2578 L77,252.2578 L10,252.2578 L10,235.125 " fill="#EEEEEE" style="stroke:#000000;stroke-width:1.5;"/><rect fill="none" height="105.6641" style="stroke:#000000;stroke-width:1.5;" width="695" x="10" y="235.125"/><text fill="#000000" font-family="sans-serif" font-size="13" font-weight="bold" lengthAdjust="spacing" textLength="32" x="25" y="248.1919">loop</text><text fill="#000000" font-family="sans-serif" font-size="11" font-weight="bold" lengthAdjust="spacing" textLength="116" x="102" y="247.3354">[each data chunk]</text><polygon fill="#1E1E1E" points="505.5,299.6563,515.5,303.6563,505.5,307.6563,509.5,303.6563" style="stroke:#1E1E1E;stroke-width:1.0;"/><line style="stroke:#1E1E1E;stroke-width:1.0;" x1="180" x2="511.5" y1="303.6563" y2="303.6563"/><text fill="#000000" font-family="sans-serif" font-size="13" font-weight="bold" lengthAdjust="spacing" textLength="21" x="187" y="283.4575">[3]</text><text fill="#000000" font-family="sans-serif" font-size="13" lengthAdjust="spacing" textLength="26" x="212" y="268.3247">CRA</text><text fill="#000000" font-family="sans-serif" font-size="13" font-weight="bold" lengthAdjust="spacing" textLength="104" x="242" y="268.3247">WRITE_CHUNK</text><text fill="#000000" font-family="sans-serif" font-size="13" lengthAdjust="spacing" textLength="45" x="350" y="268.3247">(0&#215;11)</text><text fill="#000000" font-family="sans-serif" font-size="13" lengthAdjust="spacing" textLength="11" x="212" y="283.4575">+</text><text fill="#000000" font-family="sans-serif" font-size="13" lengthAdjust="spacing" textLength="78" x="212" y="298.5903">DTL payload</text><path d="M527,269.3906 L527,294.3906 L615,294.3906 L615,279.3906 L605,269.3906 L527,269.3906 " fill="#FEFFDD" style="stroke:#181818;stroke-width:0.5;"/><path d="M605,269.3906 L605,279.3906 L615,279.3906 L605,269.3906 " fill="#FEFFDD" style="stroke:#181818;stroke-width:0.5;"/><text fill="#000000" font-family="sans-serif" font-size="13" lengthAdjust="spacing" textLength="67" x="533" y="286.4575">Flash write</text><polygon fill="#1E1E1E" points="191,328.7891,181,332.7891,191,336.7891,187,332.7891" style="stroke:#1E1E1E;stroke-width:1.0;"/><line style="stroke:#1E1E1E;stroke-width:1.0;stroke-dasharray:2.0,2.0;" x1="185" x2="521.5" y1="332.7891" y2="332.7891"/><text fill="#000000" font-family="sans-serif" font-size="13" font-weight="bold" lengthAdjust="spacing" textLength="21" x="197" y="327.7231">[4]</text><text fill="#000000" font-family="sans-serif" font-size="13" lengthAdjust="spacing" textLength="94" x="222" y="327.7231">Response (OK)</text><rect fill="#EEEEEE" height="3" style="stroke:#EEEEEE;stroke-width:1.0;" width="715" x="0" y="368.3555"/><line style="stroke:#000000;stroke-width:1.0;" x1="0" x2="715" y1="368.3555" y2="368.3555"/><line style="stroke:#000000;stroke-width:1.0;" x1="0" x2="715" y1="371.3555" y2="371.3555"/><rect fill="#EEEEEE" height="23.1328" style="stroke:#000000;stroke-width:2.0;" width="136" x="289.5" y="357.7891"/><text fill="#000000" font-family="sans-serif" font-size="13" font-weight="bold" lengthAdjust="spacing" textLength="117" x="295.5" y="373.856">3 &#183; Verify Phase</text><path d="M10,397.9219 L87,397.9219 L87,405.0547 L77,415.0547 L10,415.0547 L10,397.9219 " fill="#EEEEEE" style="stroke:#000000;stroke-width:1.5;"/><rect fill="none" height="105.6641" style="stroke:#000000;stroke-width:1.5;" width="695" x="10" y="397.9219"/><text fill="#000000" font-family="sans-serif" font-size="13" font-weight="bold" lengthAdjust="spacing" textLength="32" x="25" y="410.9888">loop</text><text fill="#000000" font-family="sans-serif" font-size="11" font-weight="bold" lengthAdjust="spacing" textLength="116" x="102" y="410.1323">[each data chunk]</text><polygon fill="#1E1E1E" points="505.5,462.4531,515.5,466.4531,505.5,470.4531,509.5,466.4531" style="stroke:#1E1E1E;stroke-width:1.0;"/><line style="stroke:#1E1E1E;stroke-width:1.0;" x1="180" x2="511.5" y1="466.4531" y2="466.4531"/><text fill="#000000" font-family="sans-serif" font-size="13" font-weight="bold" lengthAdjust="spacing" textLength="21" x="187" y="446.2544">[5]</text><text fill="#000000" font-family="sans-serif" font-size="13" lengthAdjust="spacing" textLength="26" x="212" y="431.1216">CRA</text><text fill="#000000" font-family="sans-serif" font-size="13" font-weight="bold" lengthAdjust="spacing" textLength="111" x="242" y="431.1216">VERIFY_CHUNK</text><text fill="#000000" font-family="sans-serif" font-size="13" lengthAdjust="spacing" textLength="45" x="357" y="431.1216">(0&#215;12)</text><text fill="#000000" font-family="sans-serif" font-size="13" lengthAdjust="spacing" textLength="11" x="212" y="446.2544">+</text><text fill="#000000" font-family="sans-serif" font-size="13" lengthAdjust="spacing" textLength="26" x="212" y="461.3872">CRC</text><path d="M527,432.1875 L527,457.1875 L637,457.1875 L637,442.1875 L627,432.1875 L527,432.1875 " fill="#FEFFDD" style="stroke:#181818;stroke-width:0.5;"/><path d="M627,432.1875 L627,442.1875 L637,442.1875 L627,432.1875 " fill="#FEFFDD" style="stroke:#181818;stroke-width:0.5;"/><text fill="#000000" font-family="sans-serif" font-size="13" lengthAdjust="spacing" textLength="89" x="533" y="449.2544">Compare CRC</text><polygon fill="#1E1E1E" points="191,491.5859,181,495.5859,191,499.5859,187,495.5859" style="stroke:#1E1E1E;stroke-width:1.0;"/><line style="stroke:#1E1E1E;stroke-width:1.0;stroke-dasharray:2.0,2.0;" x1="185" x2="521.5" y1="495.5859" y2="495.5859"/><text fill="#000000" font-family="sans-serif" font-size="13" font-weight="bold" lengthAdjust="spacing" textLength="21" x="197" y="490.52">[6]</text><text fill="#000000" font-family="sans-serif" font-size="13" lengthAdjust="spacing" textLength="94" x="222" y="490.52">Response (OK)</text><rect fill="#EEEEEE" height="3" style="stroke:#EEEEEE;stroke-width:1.0;" width="715" x="0" y="531.1523"/><line style="stroke:#000000;stroke-width:1.0;" x1="0" x2="715" y1="531.1523" y2="531.1523"/><line style="stroke:#000000;stroke-width:1.0;" x1="0" x2="715" y1="534.1523" y2="534.1523"/><rect fill="#EEEEEE" height="23.1328" style="stroke:#000000;stroke-width:2.0;" width="151" x="282" y="520.5859"/><text fill="#000000" font-family="sans-serif" font-size="13" font-weight="bold" lengthAdjust="spacing" textLength="132" x="288" y="536.6528">4 &#183; Execute Phase</text><polygon fill="#1E1E1E" points="505.5,570.8516,515.5,574.8516,505.5,578.8516,509.5,574.8516" style="stroke:#1E1E1E;stroke-width:1.0;"/><line style="stroke:#1E1E1E;stroke-width:1.0;" x1="180" x2="511.5" y1="574.8516" y2="574.8516"/><text fill="#000000" font-family="sans-serif" font-size="13" font-weight="bold" lengthAdjust="spacing" textLength="21" x="187" y="569.7856">[7]</text><text fill="#000000" font-family="sans-serif" font-size="13" lengthAdjust="spacing" textLength="26" x="212" y="569.7856">CRA</text><text fill="#000000" font-family="sans-serif" font-size="13" font-weight="bold" lengthAdjust="spacing" textLength="122" x="242" y="569.7856">RESET_AND_RUN</text><text fill="#000000" font-family="sans-serif" font-size="13" lengthAdjust="spacing" textLength="45" x="368" y="569.7856">(0&#215;13)</text><polygon fill="#1E1E1E" points="191,599.9844,181,603.9844,191,607.9844,187,603.9844" style="stroke:#1E1E1E;stroke-width:1.0;"/><line style="stroke:#1E1E1E;stroke-width:1.0;stroke-dasharray:2.0,2.0;" x1="185" x2="521.5" y1="603.9844" y2="603.9844"/><text fill="#000000" font-family="sans-serif" font-size="13" font-weight="bold" lengthAdjust="spacing" textLength="21" x="197" y="598.9185">[8]</text><text fill="#000000" font-family="sans-serif" font-size="13" lengthAdjust="spacing" textLength="94" x="222" y="598.9185">Response (OK)</text><path d="M347,616.9844 L347,641.9844 L697,641.9844 L697,626.9844 L687,616.9844 L347,616.9844 " fill="#FEFFDD" style="stroke:#181818;stroke-width:0.5;"/><path d="M687,616.9844 L687,626.9844 L697,626.9844 L687,616.9844 " fill="#FEFFDD" style="stroke:#181818;stroke-width:0.5;"/><text fill="#000000" font-family="sans-serif" font-size="13" lengthAdjust="spacing" textLength="329" x="353" y="634.0513">MCU boots the new firmware - no further responses</text><!--SRC=[pLRRQjj047tNLmpEGs8NKolfXOOuuAWo2N5J8pi9fIbcBOsiRUHTTNSLDPH2FwBGJ-bx-oVzaexaI-IK9g78q9KGqkwPcPrpPWTj_lhwfP8Ru8phbCMWqHWk9XggycnjmZaF42OiWJ6Q3550p4ECkK0DJM31-rGRu25SonG4OW1uHPYfL6ZfIouIfjWK-amPxlE42TDdGK1R1B2tMnQvFs2Q- -1BbKZ534B2OagYR9pS6CCd2sWSCFzoecGg0aV6Ki56w-dEi-VsR4sg0DLiFXyRDkPNiTQLmjoi06GHfqYVIx4qVaXH-3WFr55APcMB-IWxxH4TFQBZhi1BpEsDX-6BqFOBJ8cZ5LTbFsNC7HoKO2ifB_ArDgkhl8vlfAgkuEufHyDDZD1e70pwC5XerOHk6iVGZPcEw2cpHiEoobLJEvHKf5jExwXU8ngOXdnY5J9aQe84UkMS4eWWimdBOgcH8fsEKK5jRxp_jlLkx_5ulrOfYJRy-0wkOXfXNKnQxNOvJ3_Ad-ssLL03pVrvlh0BZjSXXbslCt17tLvdSDXem5RhvpUxLRUOR_XLVapdxCoDccHVEDe53tKY1VdUUdrSjmAyRL4bRTjvFkUAYdgjj9N2B6cBfKo0aeiWO8Q17wNYaixUtzWyzuw6xiWvF3qvNh1fro_4emlnSjYZ3dSTInQG_Mss08IaByKdaPcriAB8itmpz8qYA03qUfyI07zgGUQLwh6J4tM6YeVNwzIZ7EPV1JbplQFkcrL5jcUAE9xp42KSEQK6WZ23_sTAFCafybAHRtIDIXHXt8_ef-O1BSLp1-vmr3bvEV9EJnQaxrJHL0ffv1MrwALQrCTXBANHO2AaFvCCGgwcMQvOavI2C5Mqe43DNMjhAU5l]--></g></svg>