<?xml version="1.0" encoding="us-ascii" standalone="no"?><svg xmlns="http://www.w3.org/2000/svg" xmlns:xlink="http://www.w3.org/1999/xlink" contentStyleType="text/css" height="655px" preserveAspectRatio="none" style="width:725px;height:655px;background:#FFFFFF;" version="1.1" viewBox="0 0 725 655" width="725px" zoomAndPan="magnify"><defs/><g><text fill="#000000" font-family="sans-serif" font-size="14" font-weight="bold" lengthAdjust="spacing" textLength="328" x="194.75" y="27.9951">BSP Sequence - CRC Failure &amp; Auto-Retry</text><rect fill="#FF9F1C" height="29.1328" style="stroke:#1E1E1E;stroke-width:1.0;" width="10" x="502.5" y="178.125"/><rect fill="#FF9F1C" height="29.1328" style="stroke:#1E1E1E;stroke-width:1.0;" width="10" x="502.5" y="309.7891"/><rect fill="#FF9F1C" height="29.1328" style="stroke:#1E1E1E;stroke-width:1.0;" width="10" x="502.5" y="441.4531"/><rect fill="#FF9F1C" height="29.1328" style="stroke:#1E1E1E;stroke-width:1.0;" width="10" x="502.5" y="573.1172"/><line style="stroke:#1E1E1E;stroke-width:0.5;stroke-dasharray:5.0,5.0;" x1="165" x2="165" y1="73.5938" y2="620.25"/><line style="stroke:#1E1E1E;stroke-width:0.5;stroke-dasharray:5.0,5.0;" x1="507" x2="507" y1="73.5938" y2="620.25"/><rect fill="#053671" height="30.2969" rx="2.5" ry="2.5" style="stroke:#1E1E1E;stroke-width:0.5;" width="80" x="125" y="42.2969"/><text fill="#FFFFFF" font-family="sans-serif" font-size="14" lengthAdjust="spacing" textLength="66" x="132" y="62.292">Host (CLI)</text><rect fill="#053671" height="30.2969" rx="2.5" ry="2.5" style="stroke:#1E1E1E;stroke-width:0.5;" width="80" x="125" y="619.25"/><text fill="#FFFFFF" font-family="sans-serif" font-size="14" lengthAdjust="spacing" textLength="66" x="132" y="639.2451">Host (CLI)</text><rect fill="#053671" height="30.2969" rx="2.5" ry="2.5" style="stroke:#1E1E1E;stroke-width:0.5;" width="105" x="455" y="42.2969"/><text fill="#FFFFFF" font-family="sans-serif" font-size="14" lengthAdjust="spacing" textLength="91" x="462" y="62.292">Target (MCU)</text><rect fill="#053671" height="30.2969" rx="2.5" ry="2.5" style="stroke:#1E1E1E;stroke-width:0.5;" width="105" x="455" y="619.25"/><text fill="#FFFFFF" font-family="sans-serif" font-size="14" lengthAdjust="spacing" textLength="91" x="462" y="639.2451">Target (MCU)</text><rect fill="#FF9F1C" height="29.1328" style="stroke:#1E1E1E;stroke-width:1.0;" width="10" x="502.5" y="178.125"/><rect fill="#FF9F1C" height="29.1328" style="stroke:#1E1E1E;stroke-width:1.0;" width="10" x="502.5" y="309.7891"/><rect fill="#FF9F1C" height="29.1328" style="stroke:#1E1E1E;stroke-width:1.0;" width="10" x="502.5" y="441.4531"/><rect fill="#FF9F1C" height="29.1328" style="stroke:#1E1E1E;stroke-width:1.0;" width="10" x="502.5" y="573.1172"/><rect fill="#EEEEEE" height="3" style="stroke:#EEEEEE;stroke-width:1.0;" width="718.5" x="0" y="104.1602"/><line style="stroke:#000000;stroke-width:1.0;" x1="0" x2="718.5" y1="104.1602" y2="104.1602"/><line style="stroke:#000000;stroke-width:1.0;" x1="0" x2="718.5" y1="107.1602" y2="107.1602"/><rect fill="#EEEEEE" height="23.1328" style="stroke:#000000;stroke-width:2.0;" width="171" x="273.75" y="93.5938"/><text fill="#000000" font-family="sans-serif" font-size="13" font-weight="bold" lengthAdjust="spacing" textLength="152" x="279.75" y="109.6606">Write Chunk (try #1)</text><polygon fill="#1E1E1E" points="490.5,174.125,500.5,178.125,490.5,182.125,494.5,178.125" style="stroke:#1E1E1E;stroke-width:1.0;"/><line style="stroke:#1E1E1E;stroke-width:1.0;" x1="165" x2="496.5" y1="178.125" y2="178.125"/><text fill="#000000" font-family="sans-serif" font-size="13" font-weight="bold" lengthAdjust="spacing" textLength="21" x="172" y="157.9263">[1]</text><text fill="#000000" font-family="sans-serif" font-size="13" lengthAdjust="spacing" textLength="26" x="197" y="142.7935">CRA</text><text fill="#000000" font-family="sans-serif" font-size="13" font-weight="bold" lengthAdjust="spacing" textLength="104" x="227" y="142.7935">WRITE_CHUNK</text><text fill="#000000" font-family="sans-serif" font-size="13" lengthAdjust="spacing" textLength="45" x="335" y="142.7935">(0&#215;11)</text><text fill="#000000" font-family="sans-serif" font-size="13" lengthAdjust="spacing" textLength="11" x="197" y="157.9263">+</text><text fill="#000000" font-family="sans-serif" font-size="13" lengthAdjust="spacing" textLength="137" x="197" y="173.0591">DTL payload (Seq 42)</text><path d="M512,143.8594 L512,168.8594 L600,168.8594 L600,153.8594 L590,143.8594 L512,143.8594 " fill="#FEFFDD" style="stroke:#181818;stroke-width:0.5;"/><path d="M590,143.8594 L590,153.8594 L600,153.8594 L590,143.8594 " fill="#FEFFDD" style="stroke:#181818;stroke-width:0.5;"/><text fill="#000000" font-family="sans-serif" font-size="13" lengthAdjust="spacing" textLength="67" x="518" y="160.9263">Flash write</text><polygon fill="#1E1E1E" points="176,203.2578,166,207.2578,176,211.2578,172,207.2578" style="stroke:#1E1E1E;stroke-width:1.0;"/><line style="stroke:#1E1E1E;stroke-width:1.0;stroke-dasharray:2.0,2.0;" x1="170" x2="506.5" y1="207.2578" y2="207.2578"/><text fill="#000000" font-family="sans-serif" font-size="13" font-weight="bold" lengthAdjust="spacing" textLength="21" x="182" y="202.1919">[2]</text><text fill="#000000" font-family="sans-serif" font-size="13" lengthAdjust="spacing" textLength="94" x="207" y="202.1919">Response (OK)</text><rect fill="#EEEEEE" height="3" style="stroke:#EEEEEE;stroke-width:1.0;" width="718.5" x="0" y="235.8242"/><line style="stroke:#000000;stroke-width:1.0;" x1="0" x2="718.5" y1="235.8242" y2="235.8242"/><line style="stroke:#000000;stroke-width:1.0;" x1="0" x2="718.5" y1="238.8242" y2="238.8242"/><rect fill="#EEEEEE" height="23.1328" style="stroke:#000000;stroke-width:2.0;" width="237" x="240.75" y="225.2578"/><text fill="#000000" font-family="sans-serif" font-size="13" font-weight="bold" lengthAdjust="spacing" textLength="218" x="246.75" y="241.3247">Verify Chunk (CRC mismatch)</text><polygon fill="#1E1E1E" points="490.5,305.7891,500.5,309.7891,490.5,313.7891,494.5,309.7891" style="stroke:#1E1E1E;stroke-width:1.0;"/><line style="stroke:#1E1E1E;stroke-width:1.0;" x1="165" x2="496.5" y1="309.7891" y2="309.7891"/><text fill="#000000" font-family="sans-serif" font-size="13" font-weight="bold" lengthAdjust="spacing" textLength="21" x="172" y="289.5903">[3]</text><text fill="#000000" font-family="sans-serif" font-size="13" lengthAdjust="spacing" textLength="26" x="197" y="274.4575">CRA</text><text fill="#000000" font-family="sans-serif" font-size="13" font-weight="bold" lengthAdjust="spacing" textLength="111" x="227" y="274.4575">VERIFY_CHUNK</text><text fill="#000000" font-family="sans-serif" font-size="13" lengthAdjust="spacing" textLength="45" x="342" y="274.4575">(0&#215;12)</text><text fill="#000000" font-family="sans-serif" font-size="13" lengthAdjust="spacing" textLength="11" x="197" y="289.5903">+</text><text fill="#000000" font-family="sans-serif" font-size="13" lengthAdjust="spacing" textLength="96" x="197" y="304.7231">CRC for Seq 42</text><path d="M512,275.5234 L512,300.5234 L713,300.5234 L713,285.5234 L703,275.5234 L512,275.5234 " fill="#FEFFDD" style="stroke:#181818;stroke-width:0.5;"/><path d="M703,275.5234 L703,285.5234 L713,285.5234 L703,275.5234 " fill="#FEFFDD" style="stroke:#181818;stroke-width:0.5;"/><text fill="#000000" font-family="sans-serif" font-size="13" lengthAdjust="spacing" textLength="104" x="518" y="292.5903">Compute CRC &#8594;</text><text fill="#000000" font-family="sans-serif" font-size="13" font-weight="bold" lengthAdjust="spacing" textLength="72" x="626" y="292.5903">mismatch</text><polygon fill="#1E1E1E" points="176,334.9219,166,338.9219,176,342.9219,172,338.9219" style="stroke:#1E1E1E;stroke-width:1.0;"/><line style="stroke:#1E1E1E;stroke-width:1.0;stroke-dasharray:2.0,2.0;" x1="170" x2="506.5" y1="338.9219" y2="338.9219"/><text fill="#000000" font-family="sans-serif" font-size="13" font-weight="bold" lengthAdjust="spacing" textLength="21" x="182" y="333.856">[4]</text><text fill="#000000" font-family="sans-serif" font-size="13" lengthAdjust="spacing" textLength="185" x="207" y="333.856">Response (BAD CRC) &#171;error&#187;</text><rect fill="#EEEEEE" height="3" style="stroke:#EEEEEE;stroke-width:1.0;" width="718.5" x="0" y="367.4883"/><line style="stroke:#000000;stroke-width:1.0;" x1="0" x2="718.5" y1="367.4883" y2="367.4883"/><line style="stroke:#000000;stroke-width:1.0;" x1="0" x2="718.5" y1="370.4883" y2="370.4883"/><rect fill="#EEEEEE" height="23.1328" style="stroke:#000000;stroke-width:2.0;" width="231" x="243.75" y="356.9219"/><text fill="#000000" font-family="sans-serif" font-size="13" font-weight="bold" lengthAdjust="spacing" textLength="212" x="249.75" y="372.9888">Rewrite same chunk (try #2)</text><polygon fill="#1E1E1E" points="490.5,437.4531,500.5,441.4531,490.5,445.4531,494.5,441.4531" style="stroke:#1E1E1E;stroke-width:1.0;"/><line style="stroke:#1E1E1E;stroke-width:1.0;" x1="165" x2="496.5" y1="441.4531" y2="441.4531"/><text fill="#000000" font-family="sans-serif" font-size="13" font-weight="bold" lengthAdjust="spacing" textLength="21" x="172" y="421.2544">[5]</text><text fill="#000000" font-family="sans-serif" font-size="13" lengthAdjust="spacing" textLength="26" x="197" y="406.1216">CRA</text><text fill="#000000" font-family="sans-serif" font-size="13" font-weight="bold" lengthAdjust="spacing" textLength="104" x="227" y="406.1216">WRITE_CHUNK</text><text fill="#000000" font-family="sans-serif" font-size="13" lengthAdjust="spacing" textLength="45" x="335" y="406.1216">(0&#215;11)</text><text fill="#000000" font-family="sans-serif" font-size="13" lengthAdjust="spacing" textLength="11" x="197" y="421.2544">+</text><text fill="#000000" font-family="sans-serif" font-size="13" lengthAdjust="spacing" textLength="137" x="197" y="436.3872">DTL payload (Seq 42)</text><path d="M512,407.1875 L512,432.1875 L628,432.1875 L628,417.1875 L618,407.1875 L512,407.1875 " fill="#FEFFDD" style="stroke:#181818;stroke-width:0.5;"/><path d="M618,407.1875 L618,417.1875 L628,417.1875 L618,407.1875 " fill="#FEFFDD" style="stroke:#181818;stroke-width:0.5;"/><text fill="#000000" font-family="sans-serif" font-size="13" lengthAdjust="spacing" textLength="95" x="518" y="424.2544">Flash overwrite</text><polygon fill="#1E1E1E" points="176,466.5859,166,470.5859,176,474.5859,172,470.5859" style="stroke:#1E1E1E;stroke-width:1.0;"/><line style="stroke:#1E1E1E;stroke-width:1.0;stroke-dasharray:2.0,2.0;" x1="170" x2="506.5" y1="470.5859" y2="470.5859"/><text fill="#000000" font-family="sans-serif" font-size="13" font-weight="bold" lengthAdjust="spacing" textLength="21" x="182" y="465.52">[6]</text><text fill="#000000" font-family="sans-serif" font-size="13" lengthAdjust="spacing" textLength="94" x="207" y="465.52">Response (OK)</text><rect fill="#EEEEEE" height="3" style="stroke:#EEEEEE;stroke-width:1.0;" width="718.5" x="0" y="499.1523"/><line style="stroke:#000000;stroke-width:1.0;" x1="0" x2="718.5" y1="499.1523" y2="499.1523"/><line style="stroke:#000000;stroke-width:1.0;" x1="0" x2="718.5" y1="502.1523" y2="502.1523"/><rect fill="#EEEEEE" height="23.1328" style="stroke:#000000;stroke-width:2.0;" width="151" x="283.75" y="488.5859"/><text fill="#000000" font-family="sans-serif" font-size="13" font-weight="bold" lengthAdjust="spacing" textLength="132" x="289.75" y="504.6528">Verify Chunk (OK)</text><polygon fill="#1E1E1E" points="490.5,569.1172,500.5,573.1172,490.5,577.1172,494.5,573.1172" style="stroke:#1E1E1E;stroke-width:1.0;"/><line style="stroke:#1E1E1E;stroke-width:1.0;" x1="165" x2="496.5" y1="573.1172" y2="573.1172"/><text fill="#000000" font-family="sans-serif" font-size="13" font-weight="bold" lengthAdjust="spacing" textLength="21" x="172" y="552.9185">[7]</text><text fill="#000000" font-family="sans-serif" font-size="13" lengthAdjust="spacing" textLength="26" x="197" y="537.7856">CRA</text><text fill="#000000" font-family="sans-serif" font-size="13" font-weight="bold" lengthAdjust="spacing" textLength="111" x="227" y="537.7856">VERIFY_CHUNK</text><text fill="#000000" font-family="sans-serif" font-size="13" lengthAdjust="spacing" textLength="45" x="342" y="537.7856">(0&#215;12)</text><text fill="#000000" font-family="sans-serif" font-size="13" lengthAdjust="spacing" textLength="11" x="197" y="552.9185">+</text><text fill="#000000" font-family="sans-serif" font-size="13" lengthAdjust="spacing" textLength="96" x="197" y="568.0513">CRC for Seq 42</text><path d="M512,538.8516 L512,563.8516 L619,563.8516 L619,548.8516 L609,538.8516 L512,538.8516 " fill="#FEFFDD" style="stroke:#181818;stroke-width:0.5;"/><path d="M609,538.8516 L609,548.8516 L619,548.8516 L609,538.8516 " fill="#FEFFDD" style="stroke:#181818;stroke-width:0.5;"/><text fill="#000000" font-family="sans-serif" font-size="13" lengthAdjust="spacing" textLength="86" x="518" y="555.9185">CRC matches</text><polygon fill="#1E1E1E" points="176,598.25,166,602.25,176,606.25,172,602.25" style="stroke:#1E1E1E;stroke-width:1.0;"/><line style="stroke:#1E1E1E;stroke-width:1.0;stroke-dasharray:2.0,2.0;" x1="170" x2="506.5" y1="602.25" y2="602.25"/><text fill="#000000" font-family="sans-serif" font-size="13" font-weight="bold" lengthAdjust="spacing" textLength="21" x="182" y="597.1841">[8]</text><text fill="#000000" font-family="sans-serif" font-size="13" lengthAdjust="spacing" textLength="94" x="207" y="597.1841">Response (OK)</text><!--SRC=[nPJHRjem58Rl_HH78At0X4Pejsa8a20jAYhR4ALKqpfD9Za1gs0psob2qwHTxG6cINkKtMzlqYUPdQGY89LDRRevkOZit-VuVETtzgw_VSxa1HWn5T8PADIQyOc2h28JTSduWaewXpwLcdbiGRdkKzytQG2SQYMbMAmLy9606MtgNKwa2BdlYfcGaAyytN_st8dNXFHHnlDsv1sqJxJM4LolLm2MKwQHV4hbKlWXHEvXagWbfLYcTwn7EcwF1TXZ7BTptoRREhwL1S6BmF4YMOh8hcBIiXqyKhBRoYTxsJccvMaXipFA7soacPuXb4hjqpwSthIk3Ex0XGvbir0YF89Mg4LvW5gkIYL2qcxA7GkbeU3skiMSuK4Ls8bDoP3A2HhHI_VCY8madY24ch0yd8zHGgu-RhwjlAi_6JTpcT9quESFw32fTDaS7vRID0pk3fSq6d0UnN2d8R-4WWsQTuhGQ9081PIRINrGCnHR1ktve3iyUkyUdxqwAPMWKFdrtN6A5_pn1JySzipTNCq4zQ5WwCD1jKYefzaLDHaIJ5oORyacKstSs9bHDOsh8CXzi8iaoLSsgQCpr620QY6uGYYyFYaI7xTZPacuQWcFKB9W1O6nZ88Cl6iv9p4JqDQHSwRcL7lJdRX7HuDkvyqcxshCsyO8pEMDKUycxOhv8hHzDdkkltmrWM-ocplmL-ZRhKExkmZrEfg_e6ms7xWJ-xOJqLsLU6-psmuCC0wXw1p1Inc- -cyCNqlyBgvGnfx_lrO_I5bTXPw7wAjx_amsJMvAU6Xhro97HqP6TGUUlm40]--></g></svg>