<?xml version="1.0" encoding="us-ascii" standalone="no"?><svg xmlns="http://www.w3.org/2000/svg" xmlns:xlink="http://www.w3.org/1999/xlink" contentStyleType="text/css" height="437px" preserveAspectRatio="none" style="width:1395px;height:437px;background:#FFFFFF;" version="1.1" viewBox="0 0 1395 437" width="1395px" zoomAndPan="magnify"><defs/><g><!--entity Main--><g id="elem_Main"><rect fill="#F1F1F1" height="46.2969" rx="2.5" ry="2.5" style="stroke:#181818;stroke-width:0.5;" width="72" x="7" y="7"/><rect fill="#F1F1F1" height="10" style="stroke:#181818;stroke-width:0.5;" width="15" x="59" y="12"/><rect fill="#F1F1F1" height="2" style="stroke:#181818;stroke-width:0.5;" width="4" x="57" y="14"/><rect fill="#F1F1F1" height="2" style="stroke:#181818;stroke-width:0.5;" width="4" x="57" y="18"/><text fill="#000000" font-family="sans-serif" font-size="14" lengthAdjust="spacing" textLength="32" x="22" y="39.9951">Main</text></g><!--entity EventBus--><g id="elem_EventBus"><rect fill="#F1F1F1" height="46.2969" rx="2.5" ry="2.5" style="stroke:#181818;stroke-width:0.5;" width="106" x="259" y="134.5"/><rect fill="#F1F1F1" height="10" style="stroke:#181818;stroke-width:0.5;" width="15" x="345" y="139.5"/><rect fill="#F1F1F1" height="2" style="stroke:#181818;stroke-width:0.5;" width="4" x="343" y="141.5"/><rect fill="#F1F1F1" height="2" style="stroke:#181818;stroke-width:0.5;" width="4" x="343" y="145.5"/><text fill="#000000" font-family="sans-serif" font-size="14" lengthAdjust="spacing" textLength="66" x="274" y="167.4951">EventBus</text></g><!--entity TopLayer--><g id="elem_TopLayer"><rect fill="#F1F1F1" height="46.2969" rx="2.5" ry="2.5" style="stroke:#181818;stroke-width:0.5;" width="103" x="247.5" y="262"/><rect fill="#F1F1F1" height="10" style="stroke:#181818;stroke-width:0.5;" width="15" x="330.5" y="267"/><rect fill="#F1F1F1" height="2" style="stroke:#181818;stroke-width:0.5;" width="4" x="328.5" y="269"/><rect fill="#F1F1F1" height="2" style="stroke:#181818;stroke-width:0.5;" width="4" x="328.5" y="273"/><text fill="#000000" font-family="sans-serif" font-size="14" lengthAdjust="spacing" textLength="63" x="262.5" y="294.9951">TopLayer</text></g><!--entity MiddleLayer--><g id="elem_MiddleLayer"><rect fill="#F1F1F1" height="46.2969" rx="2.5" ry="2.5" style="stroke:#181818;stroke-width:0.5;" width="121" x="592.5" y="385"/><rect fill="#F1F1F1" height="10" style="stroke:#181818;stroke-width:0.5;" width="15" x="693.5" y="390"/><rect fill="#F1F1F1" height="2" style="stroke:#181818;stroke-width:0.5;" width="4" x="691.5" y="392"/><rect fill="#F1F1F1" height="2" style="stroke:#181818;stroke-width:0.5;" width="4" x="691.5" y="396"/><text fill="#000000" font-family="sans-serif" font-size="14" lengthAdjust="spacing" textLength="81" x="607.5" y="417.9951">MiddleLayer</text></g><!--entity BottomLayer--><g id="elem_BottomLayer"><rect fill="#F1F1F1" height="46.2969" rx="2.5" ry="2.5" style="stroke:#181818;stroke-width:0.5;" width="127" x="90.5" y="385"/><rect fill="#F1F1F1" height="10" style="stroke:#181818;stroke-width:0.5;" width="15" x="197.5" y="390"/><rect fill="#F1F1F1" height="2" style="stroke:#181818;stroke-width:0.5;" width="4" x="195.5" y="392"/><rect fill="#F1F1F1" height="2" style="stroke:#181818;stroke-width:0.5;" width="4" x="195.5" y="396"/><text fill="#000000" font-family="sans-serif" font-size="14" lengthAdjust="spacing" textLength="87" x="105.5" y="417.9951">BottomLayer</text></g><g id="elem_GMN16"><path d="M400.5,130 L400.5,153.5 L365.44,157.5 L400.5,161.5 L400.5,185.3984 A0,0 0 0 0 400.5,185.3984 L703.5,185.3984 A0,0 0 0 0 703.5,185.3984 L703.5,140 L693.5,130 L400.5,130 A0,0 0 0 0 400.5,130 " fill="#FEFFDD" style="stroke:#181818;stroke-width:0.5;"/><path d="M693.5,130 L693.5,140 L703.5,140 L693.5,130 " fill="#FEFFDD" style="stroke:#181818;stroke-width:0.5;"/><text fill="#000000" font-family="sans-serif" font-size="13" lengthAdjust="spacing" textLength="282" x="406.5" y="147.0669">Central hub for event-based communication</text><text fill="#000000" font-family="sans-serif" font-size="13" lengthAdjust="spacing" textLength="253" x="406.5" y="162.1997">Uses dynamic allocation for subscribers</text><text fill="#000000" font-family="sans-serif" font-size="13" lengthAdjust="spacing" textLength="191" x="406.5" y="177.3325">Prints event details on publish</text></g><g id="elem_GMN19"><path d="M385.5,265 L385.5,281 L350.67,285 L385.5,289 L385.5,305.2656 A0,0 0 0 0 385.5,305.2656 L582.5,305.2656 A0,0 0 0 0 582.5,305.2656 L582.5,275 L572.5,265 L385.5,265 A0,0 0 0 0 385.5,265 " fill="#FEFFDD" style="stroke:#181818;stroke-width:0.5;"/><path d="M572.5,265 L572.5,275 L582.5,275 L572.5,265 " fill="#FEFFDD" style="stroke:#181818;stroke-width:0.5;"/><text fill="#000000" font-family="sans-serif" font-size="13" lengthAdjust="spacing" textLength="142" x="391.5" y="282.0669">Registers one callback</text><text fill="#000000" font-family="sans-serif" font-size="13" lengthAdjust="spacing" textLength="176" x="391.5" y="297.1997">Triggers Middle and Bottom</text></g><g id="elem_GMN22"><path d="M749,395.5 L749,404 L713.82,408 L749,412 L749,420.6328 A0,0 0 0 0 749,420.6328 L917,420.6328 A0,0 0 0 0 917,420.6328 L917,405.5 L907,395.5 L749,395.5 A0,0 0 0 0 749,395.5 " fill="#FEFFDD" style="stroke:#181818;stroke-width:0.5;"/><path d="M907,395.5 L907,405.5 L917,405.5 L907,395.5 " fill="#FEFFDD" style="stroke:#181818;stroke-width:0.5;"/><text fill="#000000" font-family="sans-serif" font-size="13" lengthAdjust="spacing" textLength="147" x="755" y="412.5669">Registers two callbacks</text></g><g id="elem_GMN25"><path d="M253,395.5 L253,404 L217.7,408 L253,412 L253,420.6328 A0,0 0 0 0 253,420.6328 L487,420.6328 A0,0 0 0 0 487,420.6328 L487,405.5 L477,395.5 L253,395.5 A0,0 0 0 0 253,395.5 " fill="#FEFFDD" style="stroke:#181818;stroke-width:0.5;"/><path d="M477,395.5 L477,405.5 L487,405.5 L477,395.5 " fill="#FEFFDD" style="stroke:#181818;stroke-width:0.5;"/><text fill="#000000" font-family="sans-serif" font-size="13" lengthAdjust="spacing" textLength="213" x="259" y="412.5669">Publishes event to trigger actions</text></g><!--link Main to EventBus--><g id="link_Main_EventBus"><path d="M79.28,47.93 C127.18,70.27 206.1827,107.1332 259.1027,131.8232 " fill="none" id="Main-to-EventBus" style="stroke:#181818;stroke-width:1.0;"/><polygon fill="#181818" points="264.54,134.36,258.0752,126.9299,260.0089,132.246,254.6928,134.1797,264.54,134.36" style="stroke:#181818;stroke-width:1.0;"/><text fill="#000000" font-family="sans-serif" font-size="13" lengthAdjust="spacing" textLength="164" x="187" y="96.0669">Initializes (event_bus_init)</text></g><!--link Main to TopLayer--><g id="link_Main_TopLayer"><path d="M43.96,53.04 C46.3,84.75 54.35,143.94 82,185 C125.19,249.13 164.87,236.9 238,262 C241.09,263.06 238.5988,262.1724 241.7888,263.2924 " fill="none" id="Main-to-TopLayer" style="stroke:#181818;stroke-width:1.0;"/><polygon fill="#181818" points="247.45,265.28,240.2833,258.5244,242.7323,263.6236,237.6331,266.0727,247.45,265.28" style="stroke:#181818;stroke-width:1.0;"/><text fill="#000000" font-family="sans-serif" font-size="13" lengthAdjust="spacing" textLength="157" x="83" y="162.0669">Calls top_init and top_do</text></g><!--link TopLayer to EventBus--><g id="link_TopLayer_EventBus"><path d="M247.48,268.3 C209.15,256.1 162.56,239.96 157,232 C152.67,225.81 152.67,221.19 157,215 C179.83,182.38 217.6411,169.5134 252.8511,163.6634 " fill="none" id="TopLayer-to-EventBus" style="stroke:#181818;stroke-width:1.0;"/><polygon fill="#181818" points="258.77,162.68,249.2361,160.2092,253.8376,163.4995,250.5473,168.101,258.77,162.68" style="stroke:#181818;stroke-width:1.0;"/><text fill="#000000" font-family="sans-serif" font-size="13" lengthAdjust="spacing" textLength="161" x="158" y="228.0669">Subscribes top_on_event</text></g><!--link EventBus to TopLayer--><g id="link_EventBus_TopLayer"><path d="M320.01,180.51 C324.28,195.18 327.91,214.86 324,232 C321.66,242.25 319.8136,247.5295 315.1636,256.4495 " fill="none" id="EventBus-to-TopLayer" style="stroke:#181818;stroke-width:1.0;"/><polygon fill="#181818" points="312.39,261.77,320.0973,255.6383,314.7013,257.3363,313.0034,251.9403,312.39,261.77" style="stroke:#181818;stroke-width:1.0;"/><text fill="#000000" font-family="sans-serif" font-size="13" lengthAdjust="spacing" textLength="219" x="327" y="228.0669">Dispatches event to top_on_event</text></g><!--link TopLayer to MiddleLayer--><g id="link_TopLayer_MiddleLayer"><path d="M350.85,303.72 C415.09,325.68 518.6826,361.0891 586.7226,384.3491 " fill="none" id="TopLayer-to-MiddleLayer" style="stroke:#181818;stroke-width:1.0;"/><polygon fill="#181818" points="592.4,386.29,585.1778,379.5938,587.6688,384.6726,582.59,387.1636,592.4,386.29" style="stroke:#181818;stroke-width:1.0;"/><text fill="#000000" font-family="sans-serif" font-size="13" lengthAdjust="spacing" textLength="103" x="499" y="351.0669">Calls middle_init</text></g><!--link TopLayer to BottomLayer--><g id="link_TopLayer_BottomLayer"><path d="M247.42,300.15 C225.61,308.28 201.3,320.44 184,338 C171.35,350.84 165.3409,364.1421 160.9009,378.9721 " fill="none" id="TopLayer-to-BottomLayer" style="stroke:#181818;stroke-width:1.0;"/><polygon fill="#181818" points="159.18,384.72,165.5933,377.2454,160.6141,379.9301,157.9294,374.9509,159.18,384.72" style="stroke:#181818;stroke-width:1.0;"/><text fill="#000000" font-family="sans-serif" font-size="13" lengthAdjust="spacing" textLength="140" x="185" y="351.0669">Calls bottom_do_work</text></g><!--link MiddleLayer to EventBus--><g id="link_MiddleLayer_EventBus"><path d="M649.81,384.68 C642.31,341.81 619.06,249.16 555,215 C486.53,178.49 457.89,205.32 383,185 C377.16,183.42 376.8083,183.4488 370.8483,181.4488 " fill="none" id="MiddleLayer-to-EventBus" style="stroke:#181818;stroke-width:1.0;"/><polygon fill="#181818" points="365.16,179.54,372.4199,186.1954,369.9002,181.1307,374.9649,178.611,365.16,179.54" style="stroke:#181818;stroke-width:1.0;"/><text fill="#000000" font-family="sans-serif" font-size="13" lengthAdjust="spacing" textLength="340" x="630" y="289.5669">Subscribes middle_on_event1 and middle_on_event2</text></g><!--link EventBus to MiddleLayer--><g id="link_EventBus_MiddleLayer"><path d="M365.09,179.8 C371.07,181.76 377.13,183.54 383,185 C512.63,217.11 890.83,161.7 979,262 C992.5,277.35 991.18,291.58 979,308 C974.93,313.49 812.7143,360.9549 719.5243,387.8749 " fill="none" id="EventBus-to-MiddleLayer" style="stroke:#181818;stroke-width:1.0;"/><polygon fill="#181818" points="713.76,389.54,723.5166,390.8852,718.5636,388.1524,721.2964,383.1994,713.76,389.54" style="stroke:#181818;stroke-width:1.0;"/><text fill="#000000" font-family="sans-serif" font-size="13" lengthAdjust="spacing" textLength="398" x="989" y="289.5669">Dispatches event to middle_on_event1 and middle_on_event2</text></g><!--link BottomLayer to EventBus--><g id="link_BottomLayer_EventBus"><path d="M126.44,384.97 C94.5,356.62 49.11,305.79 73,262 C91.73,227.66 188.5393,194.1817 253.0793,174.9717 " fill="none" id="BottomLayer-to-EventBus" style="stroke:#181818;stroke-width:1.0;"/><polygon fill="#181818" points="258.83,173.26,249.0629,171.9937,254.0378,174.6864,251.3451,179.6613,258.83,173.26" style="stroke:#181818;stroke-width:1.0;"/><text fill="#000000" font-family="sans-serif" font-size="13" lengthAdjust="spacing" textLength="155" x="74" y="289.5669">Publishes event code 42</text></g><!--SRC=[ZLCxRy8m4DxpAswZ7HYAEZ5q03fKAXLgwOGgvDW6JYI-o7QAwA_lsQaX2QNg4jdd-nxto02cL5PajF4kMyq5cW_8Le-VV9_KBfoNL3sBexRXF4Ub2dswJiXxAjCr6y1CLzeeRIHg1y8eGEEr5T8ZcHFzSFW0BOKnF1dqA0hyOj2D3W_hl7PhvF1j1tIsCeQfA0e7dggO5yN2HL7RyONKMvqxQJ7N3PJCEkfTO3g59h4o1gFU1Q3JYWJ8Ov0zhGzazxts_UNjHodPkulbzOAZNlyl-1PrNg3RCLtC1qbAm_seFTtVQfsXguINPvod__hf4RV7zHjhPmAyFI_ajSiCVy7YTkU1Df0eCu0fdwmeO5Vdi27Ry0npuRJYsigoDYX5s3JEVNSif8v6b2Y1Pq7DIyIvr6SRM1UMTpIPKjeBvC5nPjLqB-DzXc2fvolLnWolUekErpp0D4XMouNSyyEIixSXtdGuDgqPsJNMrYWwnFv09s9t3TpQXb1NR_gXtuqVIF_ZYUSR]--></g></svg>