<?xml version="1.0" encoding="us-ascii" standalone="no"?><svg xmlns="http://www.w3.org/2000/svg" xmlns:xlink="http://www.w3.org/1999/xlink" contentStyleType="text/css" height="428px" preserveAspectRatio="none" style="width:1358px;height:428px;background:#FFFFFF;" version="1.1" viewBox="0 0 1358 428" width="1358px" zoomAndPan="magnify"><defs/><g><!--entity Main--><g id="elem_Main"><rect fill="#F1F1F1" height="46.2969" rx="2.5" ry="2.5" style="stroke:#181818;stroke-width:0.5;" width="72" x="7" y="7"/><rect fill="#F1F1F1" height="10" style="stroke:#181818;stroke-width:0.5;" width="15" x="59" y="12"/><rect fill="#F1F1F1" height="2" style="stroke:#181818;stroke-width:0.5;" width="4" x="57" y="14"/><rect fill="#F1F1F1" height="2" style="stroke:#181818;stroke-width:0.5;" width="4" x="57" y="18"/><text fill="#000000" font-family="sans-serif" font-size="14" lengthAdjust="spacing" textLength="32" x="22" y="39.9951">Main</text></g><!--entity EventBus--><g id="elem_EventBus"><rect fill="#F1F1F1" height="46.2969" rx="2.5" ry="2.5" style="stroke:#181818;stroke-width:0.5;" width="106" x="272" y="130"/><rect fill="#F1F1F1" height="10" style="stroke:#181818;stroke-width:0.5;" width="15" x="358" y="135"/><rect fill="#F1F1F1" height="2" style="stroke:#181818;stroke-width:0.5;" width="4" x="356" y="137"/><rect fill="#F1F1F1" height="2" style="stroke:#181818;stroke-width:0.5;" width="4" x="356" y="141"/><text fill="#000000" font-family="sans-serif" font-size="14" lengthAdjust="spacing" textLength="66" x="287" y="162.9951">EventBus</text></g><!--entity TopLayer--><g id="elem_TopLayer"><rect fill="#F1F1F1" height="46.2969" rx="2.5" ry="2.5" style="stroke:#181818;stroke-width:0.5;" width="103" x="261.5" y="253"/><rect fill="#F1F1F1" height="10" style="stroke:#181818;stroke-width:0.5;" width="15" x="344.5" y="258"/><rect fill="#F1F1F1" height="2" style="stroke:#181818;stroke-width:0.5;" width="4" x="342.5" y="260"/><rect fill="#F1F1F1" height="2" style="stroke:#181818;stroke-width:0.5;" width="4" x="342.5" y="264"/><text fill="#000000" font-family="sans-serif" font-size="14" lengthAdjust="spacing" textLength="63" x="276.5" y="285.9951">TopLayer</text></g><!--entity MiddleLayer--><g id="elem_MiddleLayer"><rect fill="#F1F1F1" height="46.2969" rx="2.5" ry="2.5" style="stroke:#181818;stroke-width:0.5;" width="121" x="606.5" y="376"/><rect fill="#F1F1F1" height="10" style="stroke:#181818;stroke-width:0.5;" width="15" x="707.5" y="381"/><rect fill="#F1F1F1" height="2" style="stroke:#181818;stroke-width:0.5;" width="4" x="705.5" y="383"/><rect fill="#F1F1F1" height="2" style="stroke:#181818;stroke-width:0.5;" width="4" x="705.5" y="387"/><text fill="#000000" font-family="sans-serif" font-size="14" lengthAdjust="spacing" textLength="81" x="621.5" y="408.9951">MiddleLayer</text></g><!--entity BottomLayer--><g id="elem_BottomLayer"><rect fill="#F1F1F1" height="46.2969" rx="2.5" ry="2.5" style="stroke:#181818;stroke-width:0.5;" width="127" x="97.5" y="376"/><rect fill="#F1F1F1" height="10" style="stroke:#181818;stroke-width:0.5;" width="15" x="204.5" y="381"/><rect fill="#F1F1F1" height="2" style="stroke:#181818;stroke-width:0.5;" width="4" x="202.5" y="383"/><rect fill="#F1F1F1" height="2" style="stroke:#181818;stroke-width:0.5;" width="4" x="202.5" y="387"/><text fill="#000000" font-family="sans-serif" font-size="14" lengthAdjust="spacing" textLength="87" x="112.5" y="408.9951">BottomLayer</text></g><g id="elem_GMN16"><path d="M413.5,133 L413.5,149 L378.44,153 L413.5,157 L413.5,173.2656 A0,0 0 0 0 413.5,173.2656 L716.5,173.2656 A0,0 0 0 0 716.5,173.2656 L716.5,143 L706.5,133 L413.5,133 A0,0 0 0 0 413.5,133 " fill="#FEFFDD" style="stroke:#181818;stroke-width:0.5;"/><path d="M706.5,133 L706.5,143 L716.5,143 L706.5,133 " fill="#FEFFDD" style="stroke:#181818;stroke-width:0.5;"/><text fill="#000000" font-family="sans-serif" font-size="13" lengthAdjust="spacing" textLength="282" x="419.5" y="150.0669">Central hub for event-based communication</text><text fill="#000000" font-family="sans-serif" font-size="13" lengthAdjust="spacing" textLength="204" x="419.5" y="165.1997">All layers subscribe/publish here</text></g><g id="elem_GMN19"><path d="M399.5,256 L399.5,272 L364.67,276 L399.5,280 L399.5,296.2656 A0,0 0 0 0 399.5,296.2656 L596.5,296.2656 A0,0 0 0 0 596.5,296.2656 L596.5,266 L586.5,256 L399.5,256 A0,0 0 0 0 399.5,256 " fill="#FEFFDD" style="stroke:#181818;stroke-width:0.5;"/><path d="M586.5,256 L586.5,266 L596.5,266 L586.5,256 " fill="#FEFFDD" style="stroke:#181818;stroke-width:0.5;"/><text fill="#000000" font-family="sans-serif" font-size="13" lengthAdjust="spacing" textLength="142" x="405.5" y="273.0669">Registers one callback</text><text fill="#000000" font-family="sans-serif" font-size="13" lengthAdjust="spacing" textLength="176" x="405.5" y="288.1997">Triggers Middle and Bottom</text></g><g id="elem_GMN22"><path d="M763,386.5 L763,395 L727.82,399 L763,403 L763,411.6328 A0,0 0 0 0 763,411.6328 L931,411.6328 A0,0 0 0 0 931,411.6328 L931,396.5 L921,386.5 L763,386.5 A0,0 0 0 0 763,386.5 " fill="#FEFFDD" style="stroke:#181818;stroke-width:0.5;"/><path d="M921,386.5 L921,396.5 L931,396.5 L921,386.5 " fill="#FEFFDD" style="stroke:#181818;stroke-width:0.5;"/><text fill="#000000" font-family="sans-serif" font-size="13" lengthAdjust="spacing" textLength="147" x="769" y="403.5669">Registers two callbacks</text></g><g id="elem_GMN25"><path d="M260,386.5 L260,395 L224.7,399 L260,403 L260,411.6328 A0,0 0 0 0 260,411.6328 L494,411.6328 A0,0 0 0 0 494,411.6328 L494,396.5 L484,386.5 L260,386.5 A0,0 0 0 0 260,386.5 " fill="#FEFFDD" style="stroke:#181818;stroke-width:0.5;"/><path d="M484,386.5 L484,396.5 L494,396.5 L484,386.5 " fill="#FEFFDD" style="stroke:#181818;stroke-width:0.5;"/><text fill="#000000" font-family="sans-serif" font-size="13" lengthAdjust="spacing" textLength="213" x="266" y="403.5669">Publishes event to trigger actions</text></g><!--link Main to EventBus--><g id="link_Main_EventBus"><path d="M79,46.45 C128.37,67.63 211.8561,103.4541 268.1861,127.6241 " fill="none" id="Main-to-EventBus" style="stroke:#181818;stroke-width:1.0;"/><polygon fill="#181818" points="273.7,129.99,267.0065,122.7653,269.1051,128.0184,263.852,130.1171,273.7,129.99" style="stroke:#181818;stroke-width:1.0;"/><text fill="#000000" font-family="sans-serif" font-size="13" lengthAdjust="spacing" textLength="58" x="202" y="96.0669">Initializes</text></g><!--link Main to TopLayer--><g id="link_Main_TopLayer"><path d="M42.65,53.06 C43.25,83.5 48.31,138.83 75,176 C125.04,245.68 170.57,226 252,253 C255.1,254.03 252.6113,253.1337 255.8113,254.2437 " fill="none" id="Main-to-TopLayer" style="stroke:#181818;stroke-width:1.0;"/><polygon fill="#181818" points="261.48,256.21,254.2879,249.4814,256.7561,254.5714,251.6661,257.0396,261.48,256.21" style="stroke:#181818;stroke-width:1.0;"/><text fill="#000000" font-family="sans-serif" font-size="13" lengthAdjust="spacing" textLength="177" x="76" y="157.5669">Calls top_init() and top_do()</text></g><!--link TopLayer to EventBus--><g id="link_TopLayer_EventBus"><path d="M261.39,260.19 C220.75,248.01 169.99,231.43 164,223 C159.63,216.84 159.55,212.11 164,206 C176.96,188.19 224.1508,174.6924 265.8608,165.4924 " fill="none" id="TopLayer-to-EventBus" style="stroke:#181818;stroke-width:1.0;"/><polygon fill="#181818" points="271.72,164.2,262.0697,162.2324,266.8374,165.277,263.7928,170.0446,271.72,164.2" style="stroke:#181818;stroke-width:1.0;"/><text fill="#000000" font-family="sans-serif" font-size="13" lengthAdjust="spacing" textLength="161" x="165" y="219.0669">Subscribes top_on_event</text></g><!--link EventBus to TopLayer--><g id="link_EventBus_TopLayer"><path d="M329.76,176.18 C331.98,189.76 333.61,207.47 331,223 C329.3,233.08 327.9895,238.203 324.5795,247.283 " fill="none" id="EventBus-to-TopLayer" style="stroke:#181818;stroke-width:1.0;"/><polygon fill="#181818" points="322.47,252.9,329.3788,245.8809,324.2279,248.2192,321.8895,243.0683,322.47,252.9" style="stroke:#181818;stroke-width:1.0;"/><text fill="#000000" font-family="sans-serif" font-size="13" lengthAdjust="spacing" textLength="219" x="334" y="219.0669">Dispatches event to top_on_event</text></g><!--link TopLayer to MiddleLayer--><g id="link_TopLayer_MiddleLayer"><path d="M364.85,294.72 C429.09,316.68 532.6826,352.0891 600.7226,375.3491 " fill="none" id="TopLayer-to-MiddleLayer" style="stroke:#181818;stroke-width:1.0;"/><polygon fill="#181818" points="606.4,377.29,599.1778,370.5938,601.6688,375.6726,596.59,378.1636,606.4,377.29" style="stroke:#181818;stroke-width:1.0;"/><text fill="#000000" font-family="sans-serif" font-size="13" lengthAdjust="spacing" textLength="113" x="513" y="342.0669">Calls middle_init()</text></g><!--link TopLayer to BottomLayer--><g id="link_TopLayer_BottomLayer"><path d="M261.37,290.95 C238.84,299.1 213.43,311.34 195,329 C181.6,341.84 174.7342,355.4282 169.4242,370.3282 " fill="none" id="TopLayer-to-BottomLayer" style="stroke:#181818;stroke-width:1.0;"/><polygon fill="#181818" points="167.41,375.98,174.1991,368.845,169.0885,371.2701,166.6634,366.1595,167.41,375.98" style="stroke:#181818;stroke-width:1.0;"/><text fill="#000000" font-family="sans-serif" font-size="13" lengthAdjust="spacing" textLength="150" x="196" y="342.0669">Calls bottom_do_work()</text></g><!--link MiddleLayer to EventBus--><g id="link_MiddleLayer_EventBus"><path d="M663.21,375.73 C654.47,332.49 628.32,238.6 562,206 C494.72,172.93 468.83,193.79 396,176 C390.23,174.59 390.0184,174.6309 384.0784,172.9309 " fill="none" id="MiddleLayer-to-EventBus" style="stroke:#181818;stroke-width:1.0;"/><polygon fill="#181818" points="378.31,171.28,385.862,177.6019,383.117,172.6557,388.0632,169.9107,378.31,171.28" style="stroke:#181818;stroke-width:1.0;"/><text fill="#000000" font-family="sans-serif" font-size="13" lengthAdjust="spacing" textLength="316" x="641" y="280.5669">Subscribes middle_on_event1, middle_on_event2</text></g><!--link EventBus to MiddleLayer--><g id="link_EventBus_MiddleLayer"><path d="M378.25,171.54 C384.2,173.19 390.2,174.72 396,176 C520.81,203.57 881.89,156.76 966,253 C979.45,268.39 977.97,282.43 966,299 C958.78,309 818.8442,352.3866 733.5442,378.1266 " fill="none" id="EventBus-to-MiddleLayer" style="stroke:#181818;stroke-width:1.0;"/><polygon fill="#181818" points="727.8,379.86,737.5718,381.0894,732.5868,378.4155,735.2607,373.4305,727.8,379.86" style="stroke:#181818;stroke-width:1.0;"/><text fill="#000000" font-family="sans-serif" font-size="13" lengthAdjust="spacing" textLength="374" x="976" y="280.5669">Dispatches event to middle_on_event1, middle_on_event2</text></g><!--link BottomLayer to EventBus--><g id="link_BottomLayer_EventBus"><path d="M130.97,375.86 C96.5,347.6 47.77,297.09 73,253 C93.49,217.2 198.5084,185.4518 266.1784,168.0818 " fill="none" id="BottomLayer-to-EventBus" style="stroke:#181818;stroke-width:1.0;"/><polygon fill="#181818" points="271.99,166.59,262.2781,164.9532,267.147,167.8331,264.2671,172.702,271.99,166.59" style="stroke:#181818;stroke-width:1.0;"/><text fill="#000000" font-family="sans-serif" font-size="13" lengthAdjust="spacing" textLength="169" x="74" y="280.5669">Publishes event (code: 42)</text></g><!--SRC=[ZLDDRy8m3BttL_Wsa8QcePquJ1gmmwGnJHitX52Q6XgHnbMJ3cs_VavBe1ymxLB5ZjzxZfzx0pFASZ9ed8rM2w7CEbezVt4uBUqQejMIybVnZOK_BrIIQ3o5KtAEiX16Dp3774s2HYgq84m2oZWiX7IAJ627qUWH6WeJU37AAQ7L3xPhpieJc0cjBJZADugh1yEAtOS93ORD9dlidsLiPQ5YhE5aDkXlUvZMsu9WLYMFcZr8w_q14bT9xcjpe6BlKItcl_exgeKMxs-xcN5dvZsozpBMogRCLTN3G5A24tWO3vkcNdhlNDbSE7c6ElfNFntMfcUNA5iMyCQyaMFN3N-XKBlK0MqXK4O0CpuLGaDQnh2bekOPnS9Y0fAoh3HA2hzTNFkaDMYlRS66cTxbzK0WnG8ZtatmKXszq3DpVE1EMUSf-8y0oOR6GkxvOidLEv-lnrQjNst5DTR6V5l4xa0dOdiDt72PmLrN_HphVY3yMoUUNm00]--></g></svg>